# xmcd
#
# Track frame offsets: 
#        150
#        20745
#        38205
#        57905
#        71517
#        88940
#        110645
#        126722
#        137672
#        153580
#        171457
#        187995
#        201600
#        222402
#
# Disc length: 3089 seconds
#
# Revision: 4
# Processed by: cddbd v1.5.2PL0 Copyright (c) Steve Scherf et al.
# Submitted via: ExactAudioCopyFreeDBPlugin 1.0
#
DISCID=e30c0f0e
DTITLE=Carol Kidd - Gold  - Linn Records
DYEAR=1995
DGENRE=Jazz
TTITLE0=When I Dream
TTITLE1=Summertime
TTITLE2=Sweet Chariot
TTITLE3=Bad Bad Leroy Brown
TTITLE4=Then I'll Be Tired Of You
TTITLE5=Georgia On My Mind
TTITLE6=Angel Eyes
TTITLE7=Sometimes
TTITLE8=I Got Plenty Of Nuthin
TTITLE9=Don't Worry About Me
TTITLE10=Lean Baby
TTITLE11=Round Midnight
TTITLE12=a. Autumn In New York - b. My Funny Valentine
TTITLE13=Please Don't Talk About Me When I'm Gone
EXTD=
EXTT0=
EXTT1=
EXTT2=
EXTT3=
EXTT4=
EXTT5=
EXTT6=
EXTT7=
EXTT8=
EXTT9=
EXTT10=
EXTT11=
EXTT12=
EXTT13=
PLAYORDER=
